<svg width="207" height="59" viewBox="0 0 207 59" fill="none" xmlns="http://www.w3.org/2000/svg">
<path d="M29.5 0C25.6261 0 21.7899 0.763123 18.2108 2.24554C14.6317 3.72813 11.3797 5.90101 8.6403 8.6403C5.90101 11.3797 3.72813 14.6317 2.24554 18.2108C0.763123 21.7899 0 25.6261 0 29.5C0 33.3739 0.763123 37.2101 2.24554 40.7892C3.72813 44.3683 5.90101 47.6202 8.6403 50.3597C11.3797 53.099 14.6317 55.2719 18.2108 56.7545C21.7899 58.2369 25.6261 59 29.5 59V44.25C27.5629 44.25 25.6449 43.8685 23.8554 43.1271C22.0658 42.3859 20.4398 41.2995 19.0702 39.9298C17.7005 38.5602 16.6141 36.9342 15.8729 35.1446C15.1315 33.3551 14.75 31.4371 14.75 29.5C14.75 27.5629 15.1315 25.6449 15.8729 23.8554C16.6141 22.0658 17.7005 20.4398 19.0702 19.0702C20.4398 17.7005 22.0658 16.6141 23.8554 15.8729C25.6449 15.1315 27.5629 14.75 29.5 14.75V0Z" fill="#0F52FF"/>
<path d="M29.5003 39.3336C34.9311 39.3336 39.3336 34.9311 39.3336 29.5003C39.3336 24.0695 34.9311 19.667 29.5003 19.667C24.0695 19.667 19.667 24.0695 19.667 29.5003C19.667 34.9311 24.0695 39.3336 29.5003 39.3336Z" fill="#0F52FF"/>
<path d="M0 29.5C0 33.3739 0.763123 37.2101 2.24554 40.7892C3.72813 44.3683 5.90101 47.6202 8.6403 50.3597C11.3797 53.099 14.6317 55.2719 18.2108 56.7545C21.7899 58.2369 25.6261 59 29.5 59C33.3739 59 37.2101 58.2369 40.7892 56.7545C44.3683 55.2719 47.6202 53.099 50.3597 50.3597C53.099 47.6202 55.2719 44.3683 56.7545 40.7892C58.2369 37.2101 59 33.3739 59 29.5H44.25C44.25 31.4371 43.8685 33.3551 43.1271 35.1446C42.3859 36.9342 41.2995 38.5602 39.9298 39.9298C38.5602 41.2995 36.9342 42.3859 35.1446 43.1271C33.3551 43.8685 31.4371 44.25 29.5 44.25C27.5629 44.25 25.6449 43.8685 23.8554 43.1271C22.0658 42.3859 20.4398 41.2995 19.0702 39.9298C17.7005 38.5602 16.6141 36.9342 15.8729 35.1446C15.1315 33.3551 14.75 31.4371 14.75 29.5H0Z" fill="#5BD0F4"/>
<path d="M39.3337 29.5004C39.3337 26.8925 38.2977 24.3914 36.4537 22.5472C34.6095 20.703 32.1084 19.667 29.5004 19.667C26.8925 19.667 24.3914 20.703 22.5472 22.5472C20.703 24.3914 19.667 26.8925 19.667 29.5004H29.5004H39.3337Z" fill="#5BD0F4"/>
<path d="M74.4071 18.416H70.7432V38.771H74.4071V18.416Z" fill="#0F52FF"/>
<path d="M76.7988 31.56C76.7988 36.2707 80.0556 39.1786 84.3593 39.1786C88.6629 39.1786 91.9197 36.2707 91.9197 31.56C91.9197 26.8493 88.6629 23.9414 84.3593 23.9414C80.0556 23.9414 76.7988 26.8493 76.7988 31.56ZM80.4627 31.56C80.4627 28.7685 82.0911 27.14 84.3593 27.14C86.6274 27.14 88.2558 28.7685 88.2558 31.56C88.2558 34.3515 86.6274 35.9799 84.3593 35.9799C82.0911 35.9799 80.4627 34.3515 80.4627 31.56Z" fill="#0F52FF"/>
<path d="M105.013 24.3485V26.2967H104.722C103.85 25.0464 102.454 23.9414 99.9531 23.9414C96.5218 23.9414 93.4395 26.8493 93.4395 31.3274C93.4395 35.8055 96.5218 38.7133 99.9531 38.7133C102.454 38.7133 103.85 37.5792 104.664 36.4452H104.955V37.841C104.955 40.6325 103.326 41.912 100.942 41.912C98.5573 41.912 97.336 40.6325 96.8416 38.9749L93.5558 40.3999C94.3118 42.5807 96.5218 44.9943 101 44.9943C105.594 44.9943 108.618 42.5807 108.618 37.9281V24.3485H105.013ZM101.058 35.5728C98.7899 35.5728 97.1034 33.9444 97.1034 31.3274C97.1034 28.7103 98.7899 27.0819 101.058 27.0819C103.326 27.0819 105.013 28.7103 105.013 31.3274C105.013 33.9444 103.326 35.5728 101.058 35.5728Z" fill="#0F52FF"/>
<path d="M110.989 31.56C110.989 36.2707 114.246 39.1786 118.55 39.1786C122.853 39.1786 126.11 36.2707 126.11 31.56C126.11 26.8493 122.853 23.9414 118.55 23.9414C114.246 23.9414 110.989 26.8493 110.989 31.56ZM114.653 31.56C114.653 28.7685 116.282 27.14 118.55 27.14C120.818 27.14 122.446 28.7685 122.446 31.56C122.446 34.3515 120.818 35.9799 118.55 35.9799C116.282 35.9799 114.653 34.3515 114.653 31.56Z" fill="#0F52FF"/>
<path d="M128.986 20.1609C128.986 21.644 130.121 22.6617 131.576 22.6617C133.029 22.6617 134.163 21.644 134.163 20.1609C134.163 18.678 133.029 17.6602 131.576 17.6602C130.121 17.6602 128.986 18.678 128.986 20.1609ZM133.406 24.3482H129.743V38.7712H133.406V24.3482Z" fill="#5BD0F4"/>
<path d="M136.671 44.5872H140.336V36.9104H140.626C141.44 38.0736 142.836 39.1786 145.337 39.1786C148.768 39.1786 151.851 36.2707 151.851 31.56C151.851 26.8493 148.768 23.9414 145.337 23.9414C142.836 23.9414 141.44 25.0464 140.568 26.2969H140.277V24.3485H136.671V44.5872ZM144.231 36.0381C141.964 36.0381 140.277 34.4097 140.277 31.56C140.277 28.7103 141.964 27.0819 144.231 27.0819C146.5 27.0819 148.186 28.7103 148.186 31.56C148.186 34.4097 146.5 36.0381 144.231 36.0381Z" fill="#5BD0F4"/>
<path d="M153.988 28.3905C153.988 31.2402 156.372 32.287 159.396 32.8686L160.153 33.0139C161.955 33.3629 162.769 33.7991 162.769 34.7296C162.769 35.6602 161.955 36.387 160.269 36.387C158.582 36.387 157.216 35.6892 156.837 33.5955L153.464 34.4678C153.959 37.492 156.488 39.1786 160.269 39.1786C163.932 39.1786 166.317 37.463 166.317 34.4389C166.317 31.4145 163.875 30.6005 160.618 29.9608L159.861 29.8153C158.349 29.5245 157.535 29.1174 157.535 28.1579C157.535 27.2855 158.292 26.733 159.688 26.733C161.083 26.733 162.071 27.3145 162.42 28.8848L165.736 27.8671C165.038 25.5408 162.916 23.9414 159.688 23.9414C156.255 23.9414 153.988 25.5408 153.988 28.3905Z" fill="#5BD0F4"/>
<path d="M182.775 38.7716V24.3486H179.112V31.7927C179.112 34.468 177.804 36.0382 175.564 36.0382C173.586 36.0382 172.482 34.9624 172.482 32.7814V24.3486H168.817V32.9559C168.817 36.5326 171.058 39.0042 174.431 39.0042C177.076 39.0042 178.298 37.8411 178.879 36.6198H179.169V38.7716H182.775Z" fill="#5BD0F4"/>
<path d="M186.025 24.3488V38.7718H189.69V30.1646C189.69 28.1872 190.621 27.0822 192.306 27.0822C193.761 27.0822 194.633 27.8964 194.633 29.4667V38.7718H198.297V30.1646C198.297 28.1872 199.228 27.0822 200.914 27.0822C202.368 27.0822 203.24 27.8964 203.24 29.4667V38.7718H206.905V29.2922C206.905 25.8028 204.752 24.1162 202.077 24.1162C199.722 24.1162 198.646 25.163 197.948 26.3843H197.657C196.988 25.0177 195.796 24.1162 193.702 24.1162C191.608 24.1162 190.474 25.0467 189.923 26.1517H189.631V24.3488H186.025Z" fill="#5BD0F4"/>
</svg>
