<svg width="295" height="59" viewBox="0 0 295 59" fill="none" xmlns="http://www.w3.org/2000/svg">
<path d="M41.8181 48.8306L2.33861 21.5977C-1.66215 18.8381 -0.302154 13.0922 4.6867 11.741L46.6463 0.352723C47.5351 0.0320001 48.4876 -0.0721106 49.4248 0.0490339C50.3619 0.170178 51.2566 0.513083 52.0347 1.04929C52.8127 1.58549 53.4517 2.29953 53.8985 3.13215C54.3453 3.96476 54.5871 4.89194 54.6038 5.83672L52.1171 44.4557C51.8222 49.0397 45.8188 51.5902 41.8181 48.8306Z" fill="#E9327C"/>
<path d="M29.2961 55.553L6.03751 10.068C5.50584 9.02743 5.27188 7.86025 5.36143 6.69516C5.45098 5.53008 5.86055 4.41235 6.54499 3.46526C7.22942 2.51816 8.16212 1.77848 9.24023 1.3278C10.3183 0.877108 11.5 0.732923 12.6548 0.911137L55.7587 7.56367C56.7511 7.71684 57.693 8.10339 58.5069 8.69151C59.3208 9.27964 59.9834 10.0526 60.4404 10.9467C60.8973 11.8408 61.1355 12.8307 61.1354 13.8348C61.1352 14.839 60.8967 15.8287 60.4395 16.7227L40.5831 55.5552C40.05 56.5928 39.241 57.4633 38.2453 58.071C37.2495 58.6787 36.1055 59.0001 34.9389 58.9999C33.7724 58.9996 32.6285 58.6778 31.633 58.0697C30.6374 57.4616 29.8288 56.5908 29.2961 55.553V55.553Z" fill="#1DACE3"/>
<path d="M54.4982 7.36812L33.0111 4.05176L6.62988 11.2148L17.1599 31.815L41.8181 48.8304C42.3621 49.2015 42.9605 49.4859 43.5918 49.6732L52.9577 31.3573L54.4982 7.36812Z" fill="#3A68B8"/>
<path d="M163.335 12.6847C163.335 11.886 163.572 11.1052 164.016 10.4412C164.459 9.7771 165.09 9.25951 165.828 8.95387C166.566 8.64823 167.378 8.56827 168.161 8.72408C168.944 8.87989 169.664 9.26449 170.229 9.82924C170.793 10.394 171.178 11.1135 171.334 11.8969C171.49 12.6802 171.41 13.4921 171.104 14.23C170.798 14.9679 170.281 15.5986 169.617 16.0423C168.953 16.486 168.172 16.7228 167.373 16.7228C166.306 16.7119 165.285 16.283 164.53 15.528C163.775 14.7731 163.346 13.7523 163.335 12.6847V12.6847ZM164.008 18.6968H170.74V41.1301H164.008V18.6968Z" fill="white"/>
<path d="M199.81 29.914C199.889 31.3968 199.673 32.8805 199.176 34.2796C198.678 35.6787 197.91 36.9658 196.913 38.0667C195.917 39.1676 194.713 40.0606 193.37 40.6945C192.027 41.3283 190.572 41.6905 189.089 41.7601C187.841 41.828 186.594 41.6176 185.438 41.1441C184.282 40.6706 183.245 39.9459 182.403 39.0225V50.1049H175.674V18.6974H182.403V20.8056C183.245 19.8825 184.282 19.1582 185.438 18.6851C186.594 18.2121 187.841 18.002 189.089 18.0702C190.572 18.1395 192.027 18.5014 193.37 19.135C194.712 19.7686 195.917 20.6614 196.913 21.7622C197.909 22.8629 198.678 24.1498 199.176 25.5488C199.673 26.9478 199.889 28.4313 199.81 29.914ZM193.081 29.914C193.054 28.8637 192.719 27.8445 192.116 26.984C191.513 26.1235 190.67 25.4598 189.692 25.0762C188.714 24.6925 187.644 24.6058 186.617 24.827C185.59 25.0482 184.651 25.5674 183.918 26.3196C183.184 27.0718 182.689 28.0237 182.494 29.056C182.298 30.0884 182.412 31.1554 182.82 32.1235C183.229 33.0916 183.913 33.9178 184.789 34.4986C185.664 35.0795 186.691 35.3893 187.742 35.3892C188.464 35.4217 189.184 35.3013 189.855 35.0357C190.527 34.7702 191.135 34.3656 191.639 33.8486C192.143 33.3315 192.532 32.7136 192.781 32.0355C193.029 31.3574 193.132 30.6344 193.081 29.914V29.914Z" fill="white"/>
<path d="M220.583 34.3971C220.583 39.5576 216.096 41.756 211.25 41.756C209.292 41.9331 207.327 41.5188 205.607 40.5667C203.887 39.6145 202.493 38.1683 201.604 36.4151L207.436 33.0965C207.673 33.9069 208.181 34.6113 208.876 35.092C209.57 35.5727 210.408 35.8005 211.25 35.7372C212.865 35.7372 213.671 35.2421 213.671 34.3464C213.671 31.8773 202.634 33.1801 202.634 25.4163C202.634 20.5264 206.761 18.0595 211.437 18.0595C213.191 18.0045 214.928 18.4207 216.466 19.2648C218.005 20.109 219.289 21.3501 220.184 22.8591L214.443 25.9554C214.192 25.3665 213.773 24.8647 213.238 24.5124C212.704 24.1602 212.077 23.9732 211.437 23.9748C210.271 23.9748 209.553 24.415 209.553 25.2314C209.547 27.8061 220.583 26.1007 220.583 34.3971Z" fill="white"/>
<path d="M245.179 18.6973V41.1306H238.449V39.018C237.672 39.9486 236.685 40.6819 235.57 41.1577C234.454 41.6335 233.242 41.8384 232.032 41.7556C227.501 41.7556 223.644 38.525 223.644 32.4667V18.6973H230.373V31.4852C230.316 32.0199 230.377 32.5605 230.551 33.0693C230.724 33.5782 231.007 34.0431 231.378 34.4317C231.75 34.8203 232.202 35.1232 232.702 35.3193C233.203 35.5155 233.74 35.6001 234.277 35.5674C236.744 35.5674 238.458 34.1325 238.458 30.946V18.6973H245.179Z" fill="white"/>
<path d="M283.752 27.3538V41.1298H277.022V27.9391C277.022 25.6967 275.944 24.2597 273.791 24.2597C271.547 24.2597 270.292 25.8309 270.292 28.4783V41.1298H263.561V27.9391C263.561 25.6967 262.485 24.2597 260.33 24.2597C258.088 24.2597 256.831 25.8309 256.831 28.4783V41.1298H250.102V18.6965H256.842V20.7518C257.54 19.8366 258.455 19.1108 259.506 18.6406C260.556 18.1705 261.707 17.971 262.854 18.0605C264.006 18.0041 265.153 18.2472 266.183 18.7659C267.213 19.2846 268.092 20.0613 268.732 21.0203C269.478 20.0169 270.466 19.2191 271.604 18.7014C272.742 18.1838 273.993 17.9633 275.239 18.0605C280.389 18.0693 283.752 21.7465 283.752 27.3538Z" fill="white"/>
<path d="M289.453 18.5583C292.212 18.5583 294.449 16.3217 294.449 13.5628C294.449 10.8039 292.212 8.56738 289.453 8.56738C286.695 8.56738 284.458 10.8039 284.458 13.5628C284.458 16.3217 286.695 18.5583 289.453 18.5583Z" fill="white"/>
<path d="M71.4541 8.37793H78.1859V41.13H71.4541V8.37793ZM81.9974 29.9134C81.99 27.5615 82.6806 25.2603 83.9819 23.3011C85.2831 21.342 87.1365 19.813 89.3072 18.9079C91.478 18.0027 93.8685 17.762 96.1761 18.2163C98.4838 18.6706 100.605 19.7994 102.27 21.4599C103.936 23.1203 105.072 25.2377 105.533 27.5438C105.995 29.85 105.762 32.2413 104.863 34.4149C103.965 36.5885 102.442 38.4466 100.487 39.7541C98.5318 41.0615 96.2327 41.7594 93.8808 41.7594C92.3188 41.7761 90.7691 41.4814 89.3222 40.8925C87.8753 40.3035 86.5603 39.4322 85.454 38.3293C84.3477 37.2265 83.4722 35.9142 82.8787 34.4692C82.2852 33.0242 81.9856 31.4755 81.9974 29.9134V29.9134ZM99.0479 29.9134C99.0215 28.8989 98.6966 27.9147 98.1137 27.0839C97.5309 26.2531 96.716 25.6126 95.771 25.2425C94.826 24.8724 93.7929 24.7892 92.8009 25.0032C91.8088 25.2172 90.9019 25.719 90.1936 26.4458C89.4853 27.1725 89.0069 28.092 88.8184 29.0892C88.63 30.0864 88.7397 31.1171 89.1339 32.0522C89.5281 32.9874 90.1894 33.7855 91.0348 34.3469C91.8803 34.9082 92.8726 35.2078 93.8874 35.2081C94.5824 35.2279 95.2739 35.1035 95.9183 34.8428C96.5628 34.582 97.1463 34.1906 97.632 33.6932C98.1176 33.1957 98.495 32.603 98.7402 31.9525C98.9854 31.3019 99.0932 30.6076 99.0567 29.9134H99.0479ZM132.605 18.6901V40.0033C132.605 47.5405 126.728 50.7248 120.762 50.7248C118.662 50.8833 116.558 50.4606 114.683 49.503C112.807 48.5454 111.231 47.0898 110.128 45.2959L115.87 41.9751C116.333 42.9114 117.071 43.6838 117.986 44.1892C118.9 44.6945 119.947 44.9086 120.986 44.8029C121.649 44.8935 122.325 44.834 122.962 44.6287C123.599 44.4235 124.182 44.0778 124.668 43.6171C125.154 43.1565 125.53 42.5926 125.769 41.9671C126.008 41.3416 126.103 40.6705 126.048 40.0033V37.9391C125.259 38.9031 124.256 39.669 123.118 40.1754C121.981 40.6817 120.74 40.9145 119.496 40.855C116.535 40.7629 113.726 39.522 111.664 37.3948C109.602 35.2677 108.449 32.4215 108.449 29.459C108.449 26.4964 109.602 23.6502 111.664 21.5231C113.726 19.3959 116.535 18.155 119.496 18.0629C120.74 18.0034 121.981 18.2362 123.118 18.7425C124.256 19.2489 125.259 20.0148 126.048 20.9788V18.6901H132.605ZM126.056 29.4579C126.101 28.3743 125.82 27.3023 125.25 26.3796C124.68 25.457 123.848 24.7258 122.859 24.2802C121.87 23.8345 120.771 23.6948 119.702 23.8789C118.634 24.0631 117.645 24.5627 116.862 25.3134C116.08 26.0642 115.54 27.0319 115.311 28.0921C115.083 29.1522 115.177 30.2564 115.582 31.2626C115.986 32.2688 116.682 33.131 117.581 33.7385C118.479 34.3459 119.539 34.6707 120.623 34.6712C121.33 34.7209 122.04 34.622 122.706 34.381C123.373 34.14 123.982 33.7621 124.493 33.2717C125.005 32.7813 125.409 32.1892 125.678 31.5335C125.947 30.8778 126.076 30.173 126.056 29.4645V29.4579ZM136.417 29.898C136.41 27.5461 137.1 25.2449 138.401 23.2857C139.703 21.3266 141.556 19.7976 143.727 18.8925C145.898 17.9873 148.288 17.7466 150.596 18.2009C152.903 18.6552 155.024 19.784 156.69 21.4445C158.356 23.1049 159.491 25.2222 159.953 27.5284C160.414 29.8346 160.181 32.2259 159.283 34.3995C158.385 36.5731 156.861 38.4312 154.906 39.7387C152.951 41.0461 150.652 41.744 148.3 41.744C146.74 41.7607 145.191 41.4665 143.745 40.8785C142.3 40.2905 140.985 39.4206 139.879 38.3193C138.773 37.2181 137.897 35.9077 137.303 34.4645C136.708 33.0213 136.407 31.4742 136.417 29.9134V29.898ZM153.468 29.898C153.442 28.8828 153.117 27.8979 152.534 27.0664C151.951 26.2349 151.136 25.5938 150.19 25.2232C149.245 24.8527 148.211 24.7693 147.218 24.9833C146.226 25.1974 145.318 25.6994 144.609 26.4266C143.901 27.1538 143.422 28.0739 143.234 29.0718C143.045 30.0696 143.155 31.1009 143.55 32.0365C143.944 32.9722 144.606 33.7706 145.452 34.332C146.299 34.8934 147.292 35.1928 148.307 35.1927C149 35.2111 149.689 35.0863 150.331 34.8259C150.974 34.5655 151.555 34.1753 152.04 33.6797C152.524 33.184 152.901 32.5937 153.147 31.9456C153.393 31.2975 153.502 30.6056 153.468 29.9134V29.898Z" fill="white"/>
</svg>
