<svg width="218" height="59" viewBox="0 0 218 59" fill="none" xmlns="http://www.w3.org/2000/svg">
<path d="M17.9563 56.3019L11.9971 45.9802L20.7425 30.874L26.3 40.5005L59.1065 40.4828L49.7975 56.4444L17.9563 56.3019Z" fill="#FFAD64"/>
<path d="M64.9651 30.2345L59.0059 40.5561L41.5509 40.5355L47.1089 30.9093L30.6904 2.50684L49.168 2.5879L64.9651 30.2345Z" fill="#ADD4D3"/>
<path d="M18.8752 2.45117H30.7936L39.5033 17.5782L28.3875 17.5777L11.9997 45.9979L2.83105 29.9553L18.8752 2.45117Z" fill="#FB8351"/>
<path fill-rule="evenodd" clip-rule="evenodd" d="M32.2463 0.0616566L32.2108 0H17.4668L0 29.9431L11.99 50.9223L12.0047 50.8969L16.5374 58.7478L51.2023 58.9029L63.3759 38.0295H63.2949L67.792 30.2404L50.5939 0.142154L32.2463 0.0616566ZM43.6518 20.0302H43.7437L35.0767 4.97739L47.7413 5.03291L62.1375 30.2277L57.6314 38.0327L45.8226 38.0389L49.9399 30.9081L43.6518 20.0302ZM29.2438 4.90318L35.1536 15.1267L26.9712 15.1264L12.9627 39.4199L12.0072 41.0706L5.6619 29.9681L20.2831 4.90318H29.2438ZM23.5619 30.8543L29.8037 20.0297L37.9881 20.03L44.2772 30.9095L40.159 38.0421L27.7154 38.0488L23.5619 30.8543ZM14.8338 45.9906L17.2085 41.8725L20.7398 35.7729L24.8853 42.9535L37.327 42.9468L37.3069 42.9816L54.7996 43.0023L48.3932 53.987L19.3756 53.8572L14.8338 45.9906Z" fill="#333237"/>
<path d="M82.0712 50.3735V38.8959H77.8291V37.6074H87.9389V38.8959H83.6967V50.3735H82.0712Z" fill="white"/>
<path d="M92.4556 50.5719C90.7772 50.5719 89.5218 50.1689 88.6893 49.3628C87.8566 48.5567 87.4404 47.3144 87.4404 45.6359C87.4404 44.1295 87.7972 42.9467 88.5109 42.0877C89.2376 41.2155 90.3809 40.7793 91.9403 40.7793C92.8653 40.7793 93.6251 40.9511 94.2199 41.2948C94.8277 41.6251 95.2772 42.0877 95.5679 42.6824C95.8718 43.2639 96.0238 43.9247 96.0238 44.6647V46.4289H89.0659C89.1187 47.1426 89.2707 47.7042 89.5218 48.1139C89.7861 48.5236 90.1759 48.8209 90.6914 49.006C91.2199 49.1777 91.9139 49.2636 92.7728 49.2636C93.7375 49.2636 94.6229 49.0985 95.429 48.768V50.0367C95.0194 50.2086 94.5568 50.3407 94.0415 50.4332C93.5392 50.5257 93.0107 50.5719 92.4556 50.5719ZM89.0659 45.2594H94.5767V44.4863C94.5767 43.7197 94.3719 43.1317 93.9621 42.7221C93.5658 42.2992 92.9049 42.0877 91.9798 42.0877C90.8566 42.0877 90.0901 42.352 89.6804 42.8806C89.2707 43.4092 89.0659 44.2021 89.0659 45.2594Z" fill="white"/>
<path d="M102.847 50.5719C101.208 50.5719 99.9921 50.1491 99.1992 49.3033C98.4063 48.4443 98.0098 47.235 98.0098 45.6756C98.0098 44.0237 98.4591 42.7947 99.3578 41.9886C100.256 41.1825 101.466 40.7793 102.985 40.7793C103.607 40.7793 104.122 40.8255 104.532 40.9182C104.941 40.9974 105.338 41.1295 105.721 41.3145V42.603C105.007 42.2595 104.195 42.0877 103.283 42.0877C102.12 42.0877 101.221 42.3653 100.587 42.9203C99.9524 43.4621 99.6353 44.3805 99.6353 45.6756C99.6353 46.9179 99.9129 47.8298 100.468 48.4112C101.023 48.9796 101.941 49.2636 103.223 49.2636C104.135 49.2636 104.974 49.0919 105.741 48.7482V50.0566C105.331 50.2284 104.888 50.3539 104.413 50.4332C103.95 50.5257 103.428 50.5719 102.847 50.5719Z" fill="white"/>
<path d="M107.562 50.3735V37.0127H109.188V41.9884C109.624 41.6316 110.133 41.3408 110.714 41.1162C111.309 40.8914 111.996 40.7791 112.776 40.7791C113.912 40.7791 114.765 41.0567 115.333 41.6117C115.902 42.1668 116.186 43.039 116.186 44.2283V50.3735H114.56V44.2878C114.56 43.4684 114.375 42.9002 114.005 42.583C113.648 42.2527 113.054 42.0874 112.221 42.0874C111.692 42.0874 111.144 42.2063 110.576 42.4442C110.021 42.6689 109.558 42.9663 109.188 43.3363V50.3735H107.562Z" fill="white"/>
<path d="M122.669 50.5717C121.347 50.5717 120.29 50.281 119.497 49.6994C118.704 49.1179 118.308 48.3382 118.308 47.3603C118.308 46.4617 118.585 45.6885 119.14 45.041C119.695 44.3934 120.455 43.8185 121.42 43.3164C120.904 42.801 120.468 42.3186 120.112 41.8693C119.755 41.42 119.576 40.8781 119.576 40.2438C119.576 39.4509 119.847 38.7835 120.389 38.2417C120.944 37.6866 121.724 37.4092 122.728 37.4092C123.706 37.4092 124.466 37.6668 125.008 38.1822C125.549 38.6976 125.821 39.3848 125.821 40.2438C125.821 40.9575 125.629 41.5588 125.245 42.0477C124.862 42.5367 124.314 43.0323 123.6 43.5345L126.891 46.8846C127.115 46.3956 127.228 45.7744 127.228 45.0211V44.7437H128.517V45.0211C128.517 45.5367 128.457 46.0388 128.338 46.5277C128.22 47.0167 128.047 47.4396 127.823 47.7964L129.607 49.6003L128.615 50.4924L127.029 48.9264C126.567 49.4946 125.966 49.9109 125.226 50.1752C124.486 50.4396 123.633 50.5717 122.669 50.5717ZM122.589 42.7415C123.211 42.3583 123.68 41.9949 123.997 41.6513C124.314 41.2944 124.473 40.8451 124.473 40.3034C124.473 39.8011 124.334 39.4046 124.056 39.1139C123.792 38.81 123.349 38.658 122.728 38.658C122.094 38.658 121.631 38.8166 121.341 39.1337C121.063 39.4509 120.924 39.8408 120.924 40.3034C120.924 40.7263 121.07 41.116 121.36 41.4728C121.664 41.8297 122.074 42.2526 122.589 42.7415ZM122.669 49.4021C123.435 49.4021 124.089 49.2898 124.631 49.0651C125.186 48.8272 125.655 48.4771 126.039 48.0145L122.411 44.3075C121.552 44.704 120.911 45.1335 120.488 45.596C120.079 46.0453 119.874 46.6202 119.874 47.3207C119.874 48.0078 120.138 48.5299 120.667 48.8867C121.195 49.2302 121.863 49.4021 122.669 49.4021Z" fill="#FB8351"/>
<path d="M78.4697 28.3411V10.665H83.6298V24.3886H91.5896V28.3411H78.4697Z" fill="#FB8351"/>
<path d="M99.8909 28.6157C97.2926 28.6157 95.3712 28.0392 94.127 26.8864C92.9011 25.7336 92.2881 24.0502 92.2881 21.8361C92.2881 19.6404 92.9102 17.9661 94.1545 16.8133C95.3988 15.6422 97.3109 15.0566 99.8909 15.0566C102.489 15.0566 104.411 15.6422 105.655 16.8133C106.918 17.9661 107.549 19.6404 107.549 21.8361C107.549 24.0502 106.927 25.7336 105.682 26.8864C104.438 28.0392 102.508 28.6157 99.8909 28.6157ZM99.8909 24.8553C100.733 24.8553 101.337 24.6175 101.703 24.1417C102.087 23.666 102.279 22.8974 102.279 21.8361C102.279 20.7932 102.087 20.0337 101.703 19.558C101.337 19.0639 100.733 18.8169 99.8909 18.8169C99.0675 18.8169 98.4728 19.0639 98.1068 19.558C97.7409 20.0337 97.5579 20.7932 97.5579 21.8361C97.5579 22.8974 97.7409 23.666 98.1068 24.1417C98.4728 24.6175 99.0675 24.8553 99.8909 24.8553Z" fill="#FB8351"/>
<path d="M115.191 33.1719C114.55 33.1719 113.855 33.1445 113.105 33.0895C112.354 33.053 111.641 32.9798 110.964 32.87C110.305 32.7603 109.756 32.6321 109.317 32.4857V29.192C109.811 29.3567 110.378 29.494 111.019 29.6037C111.677 29.7135 112.345 29.7959 113.022 29.8508C113.699 29.9056 114.321 29.9332 114.889 29.9332C115.858 29.9332 116.618 29.8782 117.167 29.7685C117.734 29.677 118.018 29.5031 118.018 29.2469C118.018 29.0274 117.926 28.881 117.743 28.8078C117.56 28.7528 117.213 28.7254 116.7 28.7254H113.269C111.934 28.7254 110.9 28.515 110.168 28.0941C109.454 27.655 109.097 27.0054 109.097 26.1454C109.097 24.9376 109.765 24.096 111.101 23.6203C110.351 23.2359 109.802 22.7511 109.454 22.1655C109.106 21.58 108.933 20.8389 108.933 19.9423C108.933 18.2588 109.5 17.0237 110.634 16.2368C111.787 15.4501 113.443 15.0566 115.602 15.0566C116.06 15.0566 116.572 15.0932 117.139 15.1664C117.707 15.2213 118.118 15.2763 118.374 15.3311H123.48L123.37 18.4601H121.641C121.97 18.881 122.135 19.3933 122.135 19.9972C122.135 21.333 121.741 22.3943 120.954 23.1811C120.186 23.9496 118.969 24.3339 117.304 24.3339C117.066 24.3339 116.81 24.3248 116.535 24.3064C116.261 24.2698 116.005 24.2424 115.767 24.224C115.364 24.2607 115.017 24.3339 114.724 24.4437C114.431 24.5534 114.285 24.7364 114.285 24.9926C114.285 25.1756 114.367 25.3037 114.532 25.3768C114.697 25.4318 114.925 25.4592 115.218 25.4592H118.21C119.546 25.4592 120.598 25.7703 121.366 26.3924C122.135 27.0146 122.519 27.9294 122.519 29.1372C122.519 30.418 121.924 31.4061 120.735 32.1014C119.546 32.8151 117.698 33.1719 115.191 33.1719ZM115.63 21.5068C116.435 21.5068 116.993 21.3695 117.304 21.0951C117.615 20.8206 117.771 20.3632 117.771 19.7227C117.771 19.0822 117.615 18.6156 117.304 18.3229C116.993 18.0302 116.435 17.8837 115.63 17.8837C114.88 17.8837 114.331 18.0302 113.983 18.3229C113.654 18.5974 113.489 19.0639 113.489 19.7227C113.489 20.3449 113.644 20.8023 113.955 21.0951C114.285 21.3695 114.843 21.5068 115.63 21.5068Z" fill="#FB8351"/>
<path d="M131.895 28.6157C129.296 28.6157 127.375 28.0392 126.13 26.8864C124.904 25.7336 124.291 24.0502 124.291 21.8361C124.291 19.6404 124.913 17.9661 126.157 16.8133C127.402 15.6422 129.314 15.0566 131.895 15.0566C134.492 15.0566 136.413 15.6422 137.658 16.8133C138.921 17.9661 139.552 19.6404 139.552 21.8361C139.552 24.0502 138.93 25.7336 137.685 26.8864C136.44 28.0392 134.511 28.6157 131.895 28.6157ZM131.895 24.8553C132.735 24.8553 133.339 24.6175 133.706 24.1417C134.09 23.666 134.282 22.8974 134.282 21.8361C134.282 20.7932 134.09 20.0337 133.706 19.558C133.339 19.0639 132.735 18.8169 131.895 18.8169C131.071 18.8169 130.476 19.0639 130.109 19.558C129.744 20.0337 129.561 20.7932 129.561 21.8361C129.561 22.8974 129.744 23.666 130.109 24.1417C130.476 24.6175 131.071 24.8553 131.895 24.8553Z" fill="#FB8351"/>
<path d="M141.82 13.601V9.86816H147.392V13.601H141.82ZM142.231 28.3402V19.0905H140.339L140.777 15.3303H147.392V28.3402H142.231Z" fill="white"/>
<path d="M149.867 34.2697V15.3311H154.342L154.589 16.374C155.118 15.9532 155.695 15.633 156.317 15.4135C156.958 15.1755 157.699 15.0566 158.541 15.0566C160.48 15.0566 161.972 15.5506 163.015 16.5387C164.075 17.5085 164.606 19.1646 164.606 21.5067C164.606 23.8307 164.048 25.5963 162.932 26.8041C161.816 28.0118 160.279 28.6155 158.321 28.6155C157.022 28.6155 155.924 28.3686 155.027 27.8745V34.2697H149.867ZM157.003 24.8553C157.754 24.8553 158.331 24.59 158.733 24.0593C159.136 23.5287 159.337 22.7053 159.337 21.589C159.337 20.5095 159.144 19.7776 158.76 19.3933C158.394 19.009 157.827 18.8169 157.058 18.8169C156.29 18.8169 155.613 19.0731 155.027 19.5854V24.1966C155.321 24.4161 155.613 24.5808 155.906 24.6906C156.198 24.8003 156.564 24.8553 157.003 24.8553Z" fill="white"/>
<path d="M171.483 28.6155C170.367 28.6155 169.315 28.5333 168.327 28.3686C167.356 28.2222 166.589 28.0301 166.021 27.7921V24.0867C166.661 24.3796 167.421 24.6082 168.298 24.7729C169.196 24.9376 169.956 25.02 170.576 25.02C171.236 25.02 171.73 25.0017 172.059 24.965C172.408 24.9285 172.58 24.7729 172.58 24.4985C172.58 24.1875 172.279 23.9496 171.675 23.7848C171.072 23.6201 170.312 23.3822 169.397 23.0712C168.207 22.6503 167.319 22.1564 166.734 21.589C166.149 21.0218 165.856 20.1985 165.856 19.1187C165.856 17.8197 166.369 16.8224 167.394 16.1271C168.418 15.4135 170.028 15.0566 172.223 15.0566C173.065 15.0566 173.935 15.1206 174.831 15.2487C175.727 15.3768 176.432 15.5232 176.945 15.6879V19.311C176.395 19.0731 175.792 18.8992 175.134 18.7895C174.493 18.6796 173.908 18.6248 173.377 18.6248C172.791 18.6248 172.269 18.6522 171.812 18.7071C171.354 18.7619 171.126 18.9175 171.126 19.1737C171.126 19.4664 171.383 19.6769 171.895 19.805C172.425 19.9331 173.13 20.1344 174.007 20.4088C174.997 20.7016 175.764 21.0218 176.314 21.3695C176.881 21.7172 177.274 22.1379 177.494 22.6321C177.731 23.1262 177.851 23.739 177.851 24.4711C177.851 25.7886 177.31 26.8132 176.231 27.5451C175.169 28.2587 173.586 28.6155 171.483 28.6155Z" fill="white"/>
<path d="M184.5 28.6155C182.982 28.6155 181.793 28.1856 180.932 27.3255C180.073 26.4655 179.644 25.2029 179.644 23.5377V15.3311H184.803V23.1261C184.803 24.2605 185.38 24.8278 186.531 24.8278C186.953 24.8278 187.365 24.7364 187.767 24.5534C188.17 24.3704 188.49 24.1416 188.728 23.8672V15.3311H193.888V28.341H189.058L188.921 27.3529C188.408 27.7189 187.776 28.0209 187.027 28.2587C186.295 28.4966 185.452 28.6155 184.5 28.6155Z" fill="white"/>
<path d="M196.346 28.3411V15.3311H201.121L201.258 16.374C201.826 15.9898 202.457 15.6788 203.152 15.4409C203.866 15.1847 204.644 15.0566 205.486 15.0566C206.326 15.0566 206.986 15.1755 207.461 15.4135C207.938 15.6512 208.322 15.9989 208.614 16.4563C209.2 16.0356 209.859 15.697 210.591 15.4409C211.34 15.1847 212.22 15.0566 213.226 15.0566C214.744 15.0566 215.861 15.4591 216.574 16.2642C217.288 17.0511 217.645 18.2588 217.645 19.8873V28.3411H212.566V20.4912C212.566 19.9056 212.448 19.494 212.21 19.256C211.973 18.9998 211.579 18.8718 211.029 18.8718C210.316 18.8718 209.73 19.128 209.274 19.6403C209.309 19.8782 209.328 20.107 209.328 20.3265C209.328 20.5277 209.328 20.7565 209.328 21.0127V28.3411H204.552V20.4088C204.552 19.8782 204.461 19.494 204.278 19.256C204.094 18.9998 203.747 18.8718 203.235 18.8718C202.887 18.8718 202.549 18.9633 202.219 19.1463C201.889 19.3293 201.597 19.5488 201.341 19.805V28.3411H196.346Z" fill="white"/>
<path d="M138.011 50.7358C136.637 50.7358 135.493 50.478 134.581 49.9626C133.684 49.434 133.01 48.7005 132.56 47.7622C132.111 46.8108 131.887 45.7007 131.887 44.432C131.887 43.0445 132.098 41.8352 132.52 40.8044C132.943 39.7736 133.604 38.9807 134.503 38.4256C135.402 37.8574 136.564 37.5732 137.991 37.5732C138.732 37.5732 139.398 37.626 139.993 37.7318C140.602 37.8376 141.17 37.9829 141.699 38.168V39.5952C141.17 39.397 140.609 39.245 140.013 39.1392C139.418 39.0203 138.792 38.9608 138.131 38.9608C136.981 38.9608 136.069 39.1789 135.395 39.6151C134.721 40.0511 134.239 40.6788 133.948 41.4982C133.656 42.3176 133.511 43.2955 133.511 44.432C133.511 46.0046 133.882 47.2205 134.621 48.0795C135.375 48.9253 136.558 49.3482 138.169 49.3482C138.765 49.3482 139.366 49.3018 139.974 49.2093C140.594 49.1168 141.17 48.9715 141.699 48.7733V50.2204C141.182 50.379 140.621 50.5044 140.013 50.597C139.418 50.6895 138.752 50.7358 138.011 50.7358Z" fill="white"/>
<path d="M148.373 50.735C146.734 50.735 145.538 50.3187 144.785 49.4862C144.045 48.6404 143.676 47.4245 143.676 45.8387C143.676 44.266 144.053 43.0569 144.805 42.2111C145.558 41.3653 146.749 40.9424 148.373 40.9424C149.999 40.9424 151.189 41.3653 151.941 42.2111C152.695 43.0569 153.071 44.266 153.071 45.8387C153.071 47.4245 152.702 48.6404 151.961 49.4862C151.222 50.3187 150.026 50.735 148.373 50.735ZM148.373 49.3475C149.496 49.3475 150.29 49.0699 150.752 48.5148C151.215 47.9466 151.446 47.0546 151.446 45.8387C151.446 44.6228 151.209 43.7375 150.732 43.1825C150.27 42.6141 149.483 42.33 148.373 42.33C147.264 42.33 146.47 42.6141 145.995 43.1825C145.533 43.7375 145.301 44.6228 145.301 45.8387C145.301 47.0546 145.533 47.9466 145.995 48.5148C146.457 49.0699 147.25 49.3475 148.373 49.3475Z" fill="white"/>
<path d="M155.058 50.5377V49.1699H156.525V50.5377H155.058Z" fill="white"/>
</svg>
