<svg width="213" height="59" viewBox="0 0 213 59" fill="none" xmlns="http://www.w3.org/2000/svg">
<path fill-rule="evenodd" clip-rule="evenodd" d="M105.236 6.43504C107.289 4.38233 110.617 4.38233 112.67 6.43504C114.723 8.48789 114.723 11.8161 112.67 13.869L100.155 26.3845C96.5612 21.5687 96.9516 14.7197 101.326 10.3456L105.236 6.43504Z" fill="#4F9E91"/>
<path fill-rule="evenodd" clip-rule="evenodd" d="M123.128 34.6717C125.181 36.7244 125.181 40.0528 123.128 42.1055C121.076 44.1583 117.747 44.1583 115.694 42.1055L103.179 29.5901C107.994 25.9968 114.844 26.387 119.218 30.7611L123.128 34.6717Z" fill="#EBE1C5"/>
<path fill-rule="evenodd" clip-rule="evenodd" d="M94.8904 52.5645C92.8377 54.6174 89.5093 54.6174 87.4566 52.5645C85.4038 50.5117 85.4038 47.1834 87.4566 45.1306L99.972 32.6152C103.565 37.431 103.175 44.28 98.801 48.6539L94.8904 52.5645Z" fill="#EBCC6E"/>
<path fill-rule="evenodd" clip-rule="evenodd" d="M76.9986 24.3271C74.9458 22.2742 74.9458 18.946 76.9986 16.8932C79.0515 14.8403 82.3797 14.8403 84.4326 16.8932L96.9481 29.4087C92.1323 33.002 85.2831 32.6116 80.9092 28.2377L76.9986 24.3271Z" fill="#ED834E"/>
<path fill-rule="evenodd" clip-rule="evenodd" d="M102.438 51.0311C105.465 47.6656 106.872 43.3592 106.659 39.1191L112.669 45.1298C112.684 45.1447 112.699 45.1597 112.715 45.1746V49.4658C112.715 52.3689 110.361 54.7223 107.458 54.7223C105.1 54.7223 103.105 53.1698 102.438 51.0311Z" fill="#ED834E"/>
<path fill-rule="evenodd" clip-rule="evenodd" d="M78.5311 31.875C81.8965 34.9021 86.2029 36.3089 90.4429 36.0955L84.4324 42.1061C84.4173 42.1211 84.4024 42.1362 84.3876 42.1511H80.0964C77.1933 42.1513 74.8398 39.7977 74.8398 36.8946C74.8398 34.5367 76.3924 32.5412 78.5311 31.875Z" fill="#4F9E91"/>
<path fill-rule="evenodd" clip-rule="evenodd" d="M121.595 27.1249C118.23 24.0978 113.924 22.6909 109.684 22.9042L115.694 16.8937C115.709 16.8788 115.724 16.8637 115.739 16.8486H120.03C122.934 16.8486 125.287 19.2022 125.287 22.1053C125.287 24.4633 123.734 26.4586 121.595 27.1249Z" fill="#EBCC6E"/>
<path fill-rule="evenodd" clip-rule="evenodd" d="M97.6882 7.96775C94.6612 11.3331 93.2544 15.6396 93.4677 19.8797L87.4572 13.8691C87.4421 13.8541 87.4272 13.8392 87.4121 13.8243V9.53306C87.4121 6.62995 89.7655 4.27637 92.6687 4.27637C95.0267 4.27637 97.022 5.8291 97.6882 7.96775Z" fill="#EBE1C5"/>
<path fill-rule="evenodd" clip-rule="evenodd" d="M92.6684 0C87.4033 0 83.135 4.26828 83.135 9.5334V11.3876C79.9674 10.56 76.457 11.3872 73.9747 13.8694C70.2517 17.5925 70.2517 23.6287 73.9747 27.3517L75.2857 28.6628C72.4607 30.3174 70.5635 33.3846 70.5635 36.8949C70.5635 42.16 74.8318 46.4283 80.0969 46.4283H81.9509C81.1233 49.5959 81.9505 53.1064 84.4327 55.5885C88.1558 59.3115 94.192 59.3115 97.9151 55.5885L101.826 51.678C105.275 48.2284 106.886 43.6363 106.659 39.1196L112.67 45.1303C116.393 48.8533 122.429 48.8533 126.152 45.1303C129.876 41.4072 129.876 35.371 126.152 31.6481L124.842 30.3372C127.666 28.6826 129.563 25.6154 129.563 22.1051C129.563 16.84 125.294 12.5717 120.03 12.5717H118.176C119.004 9.40397 118.176 5.89349 115.694 3.41122C111.971 -0.31182 105.935 -0.31182 102.212 3.41122L98.3011 7.32183C94.8515 10.7715 93.2403 15.3634 93.4677 19.8801L87.457 13.8694C87.4419 13.8545 87.427 13.8395 87.4119 13.8246V9.5334C87.4119 6.63029 89.7653 4.27686 92.6684 4.27686C95.0265 4.27686 97.0218 5.82944 97.688 7.96809C97.8855 7.74858 98.0898 7.53306 98.301 7.32183L100.901 4.72225C99.2459 1.89724 96.1788 0 92.6684 0ZM115.739 16.8486C115.724 16.8635 115.709 16.8786 115.694 16.8935L109.683 22.904C113.924 22.6907 118.23 24.0975 121.595 27.1247C123.734 26.4584 125.287 24.463 125.287 22.1051C125.287 19.202 122.934 16.8486 120.03 16.8486H115.739ZM84.3878 42.1514C84.4027 42.1363 84.4177 42.1213 84.4327 42.1063L90.4432 36.0957C86.2032 36.3091 81.8969 34.9022 78.5316 31.8753C76.3929 32.5416 74.8402 34.5369 74.8402 36.8949C74.8402 39.798 77.1938 42.1514 80.0969 42.1514H84.3878ZM78.3677 31.7259C78.2045 31.5752 78.0437 31.4206 77.8853 31.2622V31.2623C78.0437 31.4208 78.2045 31.5752 78.3677 31.7259ZM107.458 59C103.948 59 100.881 57.1026 99.2261 54.2776L101.826 51.678C102.037 51.4668 102.241 51.2513 102.439 51.0318C103.105 53.1704 105.1 54.7231 107.458 54.7231C110.361 54.7231 112.715 52.3697 112.715 49.4666V45.1754C113.947 46.3912 115.427 47.2035 116.992 47.6123V49.4666C116.992 54.7317 112.723 59 107.458 59ZM112.67 6.43533C110.617 4.38262 107.289 4.38262 105.236 6.43533L101.325 10.3459C96.9514 14.72 96.561 21.569 100.154 26.3848L112.67 13.8693C114.723 11.8164 114.723 8.48819 112.67 6.43533ZM123.127 42.1062C125.181 40.0533 125.181 36.7251 123.127 34.6722L119.217 30.7616C114.843 26.3877 107.994 25.9974 103.178 29.5907L115.694 42.1062C117.747 44.159 121.076 44.159 123.127 42.1062ZM94.8908 52.5644C92.8379 54.6172 89.5097 54.6172 87.4569 52.5644C85.4042 50.5115 85.4042 47.1833 87.4569 45.1304L99.9724 32.6149C103.566 37.4307 103.175 44.2799 98.8014 48.6538L94.8908 52.5644ZM76.9988 16.8935C74.9461 18.9464 74.9461 22.2746 76.9988 24.3275L80.9094 28.2381C85.2835 32.612 92.1325 33.0023 96.9482 29.409L84.4327 16.8935C82.3799 14.8408 79.0517 14.8408 76.9988 16.8935Z" fill="#3D3A2C"/>
<path d="M0 19.2783H4.67521V33.806H12.705V37.7416H0V19.2783Z" fill="white"/>
<path d="M21.1935 38.1381C19.6263 38.1381 18.2527 37.8563 17.0729 37.2928C15.8931 36.7117 14.9774 35.9192 14.3258 34.9156C13.692 33.8942 13.375 32.7232 13.375 31.4025C13.375 30.0818 13.692 28.9196 14.3258 27.9159C14.9774 26.8945 15.8931 26.1021 17.0729 25.5387C18.2527 24.9575 19.6263 24.667 21.1935 24.667C22.7608 24.667 24.1342 24.9575 25.314 25.5387C26.4939 26.1021 27.4008 26.8945 28.0346 27.9159C28.6862 28.9196 29.0119 30.0818 29.0119 31.4025C29.0119 32.7232 28.6862 33.8942 28.0346 34.9156C27.4008 35.9192 26.4939 36.7117 25.314 37.2928C24.1342 37.8563 22.7608 38.1381 21.1935 38.1381ZM21.1935 34.5193C22.1268 34.5193 22.8664 34.2464 23.4122 33.7006C23.9758 33.137 24.2574 32.371 24.2574 31.4025C24.2574 30.434 23.9758 29.6768 23.4122 29.131C22.8664 28.5674 22.1268 28.2857 21.1935 28.2857C20.2602 28.2857 19.5118 28.5674 18.9484 29.131C18.4024 29.6768 18.1295 30.434 18.1295 31.4025C18.1295 32.371 18.4024 33.137 18.9484 33.7006C19.5118 34.2464 20.2602 34.5193 21.1935 34.5193Z" fill="white"/>
<path d="M37.7445 43.8171C36.8993 43.8171 36.0452 43.7378 35.1824 43.5794C34.3372 43.4208 33.6063 43.2096 32.99 42.9454V39.7229C34.3811 40.3215 35.9659 40.6209 37.7445 40.6209C39.03 40.6209 39.9545 40.3567 40.5179 39.8285C41.0991 39.3003 41.3896 38.5255 41.3896 37.5041V36.7381C40.879 37.1783 40.245 37.5217 39.4878 37.7683C38.7482 38.0148 37.9558 38.1381 37.1105 38.1381C35.7723 38.1381 34.5925 37.8563 33.5711 37.2928C32.5498 36.7293 31.7485 35.9368 31.1675 34.9156C30.6039 33.8942 30.3223 32.7232 30.3223 31.4025C30.3223 30.0642 30.6039 28.8844 31.1675 27.8631C31.7309 26.8417 32.5233 26.058 33.5447 25.5122C34.566 24.9488 35.7371 24.667 37.0577 24.667C38.8715 24.667 40.3682 25.2217 41.548 26.3311V25.0631H46.0385V36.8702C46.0385 39.0713 45.3604 40.7795 44.0046 41.9945C42.6663 43.2096 40.5796 43.8171 37.7445 43.8171ZM38.2728 34.5458C38.9948 34.5458 39.6375 34.3609 40.2009 33.9911C40.7645 33.6213 41.1606 33.1283 41.3896 32.5119V30.2932C41.143 29.6768 40.738 29.1925 40.1746 28.8403C39.611 28.4706 38.9772 28.2857 38.2728 28.2857C37.3219 28.2857 36.5558 28.5674 35.9748 29.131C35.3936 29.6768 35.1031 30.4251 35.1031 31.3761C35.1031 32.3446 35.3936 33.1194 35.9748 33.7006C36.5558 34.264 37.3219 34.5458 38.2728 34.5458Z" fill="white"/>
<path d="M55.0363 38.1381C53.4691 38.1381 52.0956 37.8563 50.9158 37.2928C49.736 36.7117 48.8202 35.9192 48.1688 34.9156C47.5348 33.8942 47.2178 32.7232 47.2178 31.4025C47.2178 30.0818 47.5348 28.9196 48.1688 27.9159C48.8202 26.8945 49.736 26.1021 50.9158 25.5387C52.0956 24.9575 53.4691 24.667 55.0363 24.667C56.6035 24.667 57.977 24.9575 59.1568 25.5387C60.3366 26.1021 61.2435 26.8945 61.8775 27.9159C62.529 28.9196 62.8549 30.0818 62.8549 31.4025C62.8549 32.7232 62.529 33.8942 61.8775 34.9156C61.2435 35.9192 60.3366 36.7117 59.1568 37.2928C57.977 37.8563 56.6035 38.1381 55.0363 38.1381ZM55.0363 34.5193C55.9696 34.5193 56.7092 34.2464 57.2551 33.7006C57.8186 33.137 58.1004 32.371 58.1004 31.4025C58.1004 30.434 57.8186 29.6768 57.2551 29.131C56.7092 28.5674 55.9696 28.2857 55.0363 28.2857C54.1031 28.2857 53.3546 28.5674 52.7912 29.131C52.2452 29.6768 51.9723 30.434 51.9723 31.4025C51.9723 32.371 52.2452 33.137 52.7912 33.7006C53.3546 34.2464 54.1031 34.5193 55.0363 34.5193Z" fill="white"/>
<path d="M137.418 19.2783H142.094V37.7416H137.418V19.2783Z" fill="white"/>
<path d="M144.461 25.0631H148.952V26.3311C150.131 25.2217 151.628 24.667 153.441 24.667C154.762 24.667 155.934 24.9488 156.954 25.5122C157.977 26.058 158.768 26.8417 159.331 27.8631C159.895 28.8668 160.178 30.0379 160.178 31.3761C160.178 32.6968 159.895 33.8766 159.331 34.9156C158.768 35.9368 157.977 36.7293 156.954 37.2928C155.951 37.8563 154.78 38.1381 153.441 38.1381C152.597 38.1381 151.786 38.006 151.012 37.7418C150.255 37.4953 149.62 37.1519 149.11 36.7116V43.5264H144.461V25.0631ZM152.227 34.5193C153.178 34.5193 153.944 34.2377 154.524 33.6741C155.105 33.1107 155.397 32.3446 155.397 31.3761C155.397 30.4075 155.105 29.6505 154.524 29.1045C153.944 28.5411 153.178 28.2593 152.227 28.2593C151.523 28.2593 150.888 28.4442 150.325 28.814C149.761 29.1662 149.357 29.6505 149.11 30.2667V32.5119C149.357 33.1283 149.761 33.6213 150.325 33.9911C150.888 34.3433 151.523 34.5193 152.227 34.5193Z" fill="white"/>
<path d="M167.108 38.1381C166.087 38.1381 165.022 38.0324 163.912 37.8211C162.803 37.6274 161.921 37.3456 161.271 36.9758V33.5685C161.992 33.9911 162.855 34.3433 163.859 34.6251C164.88 34.8891 165.813 35.0212 166.659 35.0212C167.275 35.0212 167.724 34.9771 168.005 34.8891C168.288 34.8011 168.429 34.6251 168.429 34.3609C168.429 34.1495 168.332 33.9822 168.139 33.859C167.963 33.7182 167.627 33.5772 167.134 33.4364C166.659 33.2779 166.105 33.1107 165.47 32.9345C164.396 32.6175 163.552 32.2918 162.935 31.9572C162.318 31.6226 161.861 31.1999 161.561 30.6893C161.262 30.1787 161.112 29.536 161.112 28.7612C161.112 27.3876 161.649 26.3663 162.723 25.6971C163.815 25.0103 165.303 24.667 167.187 24.667C168.103 24.667 169.063 24.7639 170.066 24.9575C171.088 25.1513 171.853 25.4066 172.365 25.7236V29.0782C171.837 28.726 171.131 28.4353 170.251 28.2065C169.389 27.9775 168.578 27.8631 167.821 27.8631C167.223 27.8631 166.756 27.9247 166.421 28.0479C166.087 28.1536 165.92 28.3473 165.92 28.6291C165.92 28.8933 166.087 29.0958 166.421 29.2366C166.756 29.3774 167.355 29.5536 168.217 29.7648C168.781 29.9058 169.019 29.9673 168.93 29.9497C170.057 30.2491 170.928 30.5837 171.545 30.9535C172.162 31.3233 172.593 31.7635 172.84 32.2742C173.104 32.7672 173.236 33.4012 173.236 34.176C173.236 35.391 172.708 36.3594 171.652 37.0815C170.612 37.7859 169.097 38.1381 167.108 38.1381Z" fill="white"/>
<path d="M180.176 38.1374C178.434 38.1374 177.122 37.6531 176.242 36.6847C175.379 35.7161 174.947 34.4395 174.947 32.8547V25.0625H179.596V32.3263C179.596 33.7879 180.256 34.5187 181.577 34.5187C182.176 34.5187 182.722 34.3779 183.215 34.0961C183.707 33.8143 184.112 33.4005 184.429 32.8547V25.0625H189.078V37.7412H184.589V36.3677C184.043 36.9487 183.382 37.389 182.607 37.6883C181.833 37.9877 181.022 38.1374 180.176 38.1374Z" fill="white"/>
<path d="M191.459 25.0631H195.765V26.4367C196.293 25.8733 196.901 25.4418 197.587 25.1424C198.274 24.8254 199.004 24.667 199.78 24.667C200.731 24.667 201.488 24.8078 202.052 25.0896C202.633 25.3714 203.099 25.794 203.451 26.3574C203.979 25.8292 204.623 25.4153 205.38 25.1161C206.137 24.8167 206.903 24.667 207.677 24.667C209.35 24.667 210.539 25.0985 211.243 25.9613C211.948 26.8065 212.3 28.0303 212.3 29.6327V37.7418H207.862V30.2932C207.862 29.5888 207.73 29.0782 207.466 28.7612C207.202 28.4442 206.761 28.2857 206.146 28.2857C205.353 28.2857 204.71 28.5674 204.217 29.131C204.235 29.4302 204.244 29.8882 204.244 30.5044V37.7418H199.806V30.1083C199.806 29.4567 199.692 28.99 199.463 28.7084C199.234 28.4266 198.828 28.2857 198.249 28.2857C197.349 28.2857 196.576 28.7875 195.923 29.7913V37.7418H191.459V25.0631Z" fill="white"/>
</svg>
